999
dxfrw 0.6.3
  0
SECTION
  2
HEADER
  9
$ACADVER
  1
AC1018
  9
$DWGCODEPAGE
  3
ANSI_1252
  9
$INSBASE
 10
0
 20
0
 30
0
  9
$EXTMIN
 10
-20
 20
-10
 30
0
  9
$EXTMAX
 10
400
 20
287
 30
0
  9
$LIMMIN
 10
0
 20
0
  9
$LIMMAX
 10
420
 20
297
  9
$ORTHOMODE
 70
    0
  9
$REGENMODE
 70
    1
  9
$FILLMODE
 70
    1
  9
$QTEXTMODE
 70
    0
  9
$MIRRTEXT
 70
    0
  9
$LTSCALE
 40
1
  9
$ATTMODE
 70
    0
  9
$TEXTSIZE
 40
2.5
  9
$TRACEWID
 40
15.68
  9
$TEXTSTYLE
  7
STANDARD
  9
$CLAYER
  8
invisible
  9
$CELTYPE
  6
BYLAYER
  9
$CECOLOR
 62
  256
  9
$CELTSCALE
 40
1
  9
$DISPSILH
 70
    0
  9
$DIMSCALE
 40
2.5
  9
$DIMASZ
 40
1
  9
$DIMEXO
 40
0.625
  9
$DIMDLI
 40
3.75
  9
$DIMRND
 40
0
  9
$DIMDLE
 40
0
  9
$DIMEXE
 40
1.25
  9
$DIMTP
 40
0
  9
$DIMTM
 40
0
  9
$DIMTXT
 40
1
  9
$DIMCEN
 40
2.5
  9
$DIMTSZ
 40
0
  9
$DIMTOL
 70
    0
  9
$DIMLIM
 70
    0
  9
$DIMTIH
 70
    0
  9
$DIMTOH
 70
    0
  9
$DIMSE1
 70
    0
  9
$DIMSE2
 70
    0
  9
$DIMTAD
 70
    1
  9
$DIMZIN
 70
    8
  9
$DIMBLK
  1

  9
$DIMASO
 70
    1
  9
$DIMSHO
 70
    1
  9
$DIMPOST
  1

  9
$DIMAPOST
  1

  9
$DIMALT
 70
    0
  9
$DIMALTD
 70
    3
  9
$DIMALTF
 40
0.03937
  9
$DIMLFAC
 40
1
  9
$DIMTOFL
 70
    1
  9
$DIMTVP
 40
0
  9
$DIMTIX
 70
    0
  9
$DIMSOXD
 70
    0
  9
$DIMSAH
 70
    0
  9
$DIMBLK1
  1

  9
$DIMBLK2
  1

  9
$DIMSTYLE
  2
STANDARD
  9
$DIMCLRD
 70
    0
  9
$DIMCLRE
 70
    0
  9
$DIMCLRT
 70
    0
  9
$DIMTFAC
 40
1
  9
$DIMGAP
 40
0.625
  9
$DIMJUST
 70
    0
  9
$DIMSD1
 70
    0
  9
$DIMSD2
 70
    0
  9
$DIMTOLJ
 70
    0
  9
$DIMTZIN
 70
    8
  9
$DIMALTZ
 70
    0
  9
$DIMALTTZ
 70
    0
  9
$DIMUPT
 70
    0
  9
$DIMDEC
 70
    2
  9
$DIMTDEC
 70
    2
  9
$DIMALTU
 70
    2
  9
$DIMALTTD
 70
    3
  9
$DIMTXSTY
  7
standard
  9
$DIMAUNIT
 70
    0
  9
$DIMADEC
 70
    0
  9
$DIMALTRND
 40
0
  9
$DIMAZIN
 70
    0
  9
$DIMDSEP
 70
   44
  9
$DIMATFIT
 70
    3
  9
$DIMFRAC
 70
    0
  9
$DIMLDRBLK
  1
STANDARD
  9
$DIMLUNIT
 70
    2
  9
$DIMLWD
 70
   -2
  9
$DIMLWE
 70
   -2
  9
$DIMTMOVE
 70
    0
  9
$LUNITS
 70
    2
  9
$LUPREC
 70
    4
  9
$SKETCHINC
 40
1
  9
$FILLETRAD
 40
0
  9
$AUNITS
 70
    0
  9
$AUPREC
 70
    2
  9
$MENU
  1
.
  9
$ELEVATION
 40
0
  9
$PELEVATION
 40
0
  9
$THICKNESS
 40
0
  9
$LIMCHECK
 70
    0
  9
$CHAMFERA
 40
0
  9
$CHAMFERB
 40
0
  9
$CHAMFERC
 40
0
  9
$CHAMFERD
 40
0
  9
$SKPOLY
 70
    0
  9
$USRTIMER
 70
    1
  9
$ANGBASE
 50
0
  9
$ANGDIR
 70
    0
  9
$PDMODE
 70
   34
  9
$PDSIZE
 40
0
  9
$PLINEWID
 40
0
  9
$SPLFRAME
 70
    0
  9
$SPLINETYPE
 70
    2
  9
$SPLINESEGS
 70
    8
  9
$HANDSEED
  5
20000
  9
$SURFTAB1
 70
    6
  9
$SURFTAB2
 70
    6
  9
$SURFTYPE
 70
    6
  9
$SURFU
 70
    6
  9
$SURFV
 70
    6
  9
$UCSBASE
  2

  9
$UCSNAME
  2

  9
$UCSORG
 10
0
 20
0
 30
0
  9
$UCSXDIR
 10
1
 20
0
 30
0
  9
$UCSYDIR
 10
0
 20
1
 30
0
  9
$UCSORTHOREF
  2

  9
$UCSORTHOVIEW
 70
    0
  9
$UCSORGTOP
 10
0
 20
0
 30
0
  9
$UCSORGBOTTOM
 10
0
 20
0
 30
0
  9
$UCSORGLEFT
 10
0
 20
0
 30
0
  9
$UCSORGRIGHT
 10
0
 20
0
 30
0
  9
$UCSORGFRONT
 10
0
 20
0
 30
0
  9
$UCSORGBACK
 10
0
 20
0
 30
0
  9
$PUCSBASE
  2

  9
$PUCSNAME
  2

  9
$PUCSORG
 10
0
 20
0
 30
0
  9
$PUCSXDIR
 10
1
 20
0
 30
0
  9
$PUCSYDIR
 10
0
 20
1
 30
0
  9
$PUCSORTHOREF
  2

  9
$PUCSORTHOVIEW
 70
    0
  9
$PUCSORGTOP
 10
0
 20
0
 30
0
  9
$PUCSORGBOTTOM
 10
0
 20
0
 30
0
  9
$PUCSORGLEFT
 10
0
 20
0
 30
0
  9
$PUCSORGRIGHT
 10
0
 20
0
 30
0
  9
$PUCSORGFRONT
 10
0
 20
0
 30
0
  9
$PUCSORGBACK
 10
0
 20
0
 30
0
  9
$USERI1
 70
    0
  9
$USERI2
 70
    0
  9
$USERI3
 70
    0
  9
$USERI4
 70
    0
  9
$USERI5
 70
    0
  9
$USERR1
 40
0
  9
$USERR2
 40
0
  9
$USERR3
 40
0
  9
$USERR4
 40
0
  9
$USERR5
 40
0
  9
$WORLDVIEW
 70
    1
  9
$SHADEDGE
 70
    3
  9
$SHADEDIF
 70
   70
  9
$TILEMODE
 70
    1
  9
$MAXACTVP
 70
   64
  9
$PINSBASE
 10
0
 20
0
 30
0
  9
$PLIMCHECK
 70
    0
  9
$PEXTMIN
 10
0
 20
0
 30
0
  9
$PEXTMAX
 10
0
 20
0
 30
0
  9
$GRIDMODE
 70
    1
  9
$SNAPSTYLE
 70
    0
  9
$GRIDUNIT
 10
0
 20
0
  9
$PLIMMIN
 10
0
 20
0
  9
$PLIMMAX
 10
210
 20
297
  9
$UNITMODE
 70
    0
  9
$VISRETAIN
 70
    1
  9
$PLINEGEN
 70
    0
  9
$PSLTSCALE
 70
    1
  9
$TREEDEPTH
 70
 3020
  9
$CMLSTYLE
  2
Standard
  9
$CMLJUST
 70
    0
  9
$CMLSCALE
 40
20
  9
$PROXYGRAPHICS
 70
    1
  9
$MEASUREMENT
 70
    1
  9
$CELWEIGHT
370
   -1
  9
$ENDCAPS
280
    0
  9
$JOINSTYLE
280
    0
  9
$LWDISPLAY
290
    0
  9
$INSUNITS
 70
    4
  9
$HYPERLINKBASE
  1

  9
$STYLESHEET
  1

  9
$XEDIT
290
    1
  9
$CEPSNTYPE
380
    0
  9
$PSTYLEMODE
290
    1
  9
$EXTNAMES
290
    1
  9
$PSVPSCALE
 40
1
  9
$OLESTARTUP
290
    0
  9
$SORTENTS
280
  127
  9
$INDEXCTL
280
    0
  9
$HIDETEXT
280
    1
  9
$XCLIPFRAME
290
    0
  9
$HALOGAP
280
    0
  9
$OBSCOLOR
 70
  257
  9
$OBSLTYPE
280
    0
  9
$INTERSECTIONDISPLAY
280
    0
  9
$INTERSECTIONCOLOR
 70
  257
  9
$DIMASSOC
280
    1
  9
$PROJECTNAME
  1

  0
ENDSEC
  0
SECTION
  2
CLASSES
  0
ENDSEC
  0
SECTION
  2
TABLES
  0
TABLE
  2
VPORT
  5
8
330
0
100
AcDbSymbolTable
 70
    1
  0
VPORT
  5
31
330
2
100
AcDbSymbolTableRecord
100
AcDbViewportTableRecord
  2
*ACTIVE
 70
    0
 10
0
 20
0
 11
1
 21
1
 12
228.3386693331029
 22
155.7991546623362
 13
0
 23
0
 14
10
 24
10
 15
10
 25
10
 16
0
 26
0
 36
1
 17
0
 27
0
 37
0
 40
268.3604705307672
 41
2.093209054593875
 42
50
 43
0
 44
0
 50
0
 51
0
 71
    0
 72
  100
 73
    1
 74
    3
 75
    0
 76
    1
 77
    0
 78
    0
281
    0
 65
    1
110
0
120
0
130
0
111
1
121
0
131
0
112
0
122
1
132
0
 79
    0
146
0
  0
ENDTAB
  0
TABLE
  2
LTYPE
  5
5
330
0
100
AcDbSymbolTable
 70
    4
  0
LTYPE
  5
14
330
5
100
AcDbSymbolTableRecord
100
AcDbLinetypeTableRecord
  2
ByBlock
 70
    0
  3

 72
   65
 73
    0
 40
0
  0
LTYPE
  5
15
330
5
100
AcDbSymbolTableRecord
100
AcDbLinetypeTableRecord
  2
ByLayer
 70
    0
  3

 72
   65
 73
    0
 40
0
  0
LTYPE
  5
16
330
5
100
AcDbSymbolTableRecord
100
AcDbLinetypeTableRecord
  2
Continuous
 70
    0
  3
Solid line
 72
   65
 73
    0
 40
0
  0
LTYPE
  5
32
330
5
100
AcDbSymbolTableRecord
100
AcDbLinetypeTableRecord
  2
DOT
 70
    0
  3
Dot . . . . . . . . . . . . . . . . . . . . . .
 72
   65
 73
    2
 40
6.35
 49
0
 74
    0
 49
-6.35
 74
    0
  0
LTYPE
  5
33
330
5
100
AcDbSymbolTableRecord
100
AcDbLinetypeTableRecord
  2
DOTTINY
 70
    0
  3
Dot (.15x) .....................................
 72
   65
 73
    2
 40
0.9525
 49
0
 74
    0
 49
-0.9525
 74
    0
  0
LTYPE
  5
34
330
5
100
AcDbSymbolTableRecord
100
AcDbLinetypeTableRecord
  2
DOT2
 70
    0
  3
Dot (.5x) .....................................
 72
   65
 73
    2
 40
3.175
 49
0
 74
    0
 49
-3.175
 74
    0
  0
LTYPE
  5
35
330
5
100
AcDbSymbolTableRecord
100
AcDbLinetypeTableRecord
  2
DOTX2
 70
    0
  3
Dot (2x) .  .  .  .  .  .  .  .  .  .  .  .  .
 72
   65
 73
    2
 40
12.7
 49
0
 74
    0
 49
-12.7
 74
    0
  0
LTYPE
  5
36
330
5
100
AcDbSymbolTableRecord
100
AcDbLinetypeTableRecord
  2
DASHED
 70
    0
  3
Dashed _ _ _ _ _ _ _ _ _ _ _ _ _ _ _ _ _
 72
   65
 73
    2
 40
19.05
 49
12.7
 74
    0
 49
-6.35
 74
    0
  0
LTYPE
  5
37
330
5
100
AcDbSymbolTableRecord
100
AcDbLinetypeTableRecord
  2
DASHEDTINY
 70
    0
  3
Dashed (.15x) _ _ _ _ _ _ _ _ _ _ _ _ _ _ _ _ _
 72
   65
 73
    2
 40
2.8575
 49
1.905
 74
    0
 49
-0.9525
 74
    0
  0
LTYPE
  5
38
330
5
100
AcDbSymbolTableRecord
100
AcDbLinetypeTableRecord
  2
DASHED2
 70
    0
  3
Dashed (.5x) _ _ _ _ _ _ _ _ _ _ _ _ _ _ _ _ _
 72
   65
 73
    2
 40
9.524999999999999
 49
6.35
 74
    0
 49
-3.175
 74
    0
  0
LTYPE
  5
39
330
5
100
AcDbSymbolTableRecord
100
AcDbLinetypeTableRecord
  2
DASHEDX2
 70
    0
  3
Dashed (2x) ____  ____  ____  ____  ____  ___
 72
   65
 73
    2
 40
38.09999999999999
 49
25.4
 74
    0
 49
-12.7
 74
    0
  0
LTYPE
  5
3A
330
5
100
AcDbSymbolTableRecord
100
AcDbLinetypeTableRecord
  2
DASHDOT
 70
    0
  3
Dash dot __ . __ . __ . __ . __ . __ . __ . __
 72
   65
 73
    4
 40
25.4
 49
12.7
 74
    0
 49
-6.35
 74
    0
 49
0
 74
    0
 49
-6.35
 74
    0
  0
LTYPE
  5
3B
330
5
100
AcDbSymbolTableRecord
100
AcDbLinetypeTableRecord
  2
DASHDOTTINY
 70
    0
  3
Dash dot (.15x) _._._._._._._._._._._._._._._.
 72
   65
 73
    4
 40
3.81
 49
1.905
 74
    0
 49
-0.9525
 74
    0
 49
0
 74
    0
 49
-0.9525
 74
    0
  0
LTYPE
  5
3C
330
5
100
AcDbSymbolTableRecord
100
AcDbLinetypeTableRecord
  2
DASHDOT2
 70
    0
  3
Dash dot (.5x) _._._._._._._._._._._._._._._.
 72
   65
 73
    4
 40
12.7
 49
6.35
 74
    0
 49
-3.175
 74
    0
 49
0
 74
    0
 49
-3.175
 74
    0
  0
LTYPE
  5
3D
330
5
100
AcDbSymbolTableRecord
100
AcDbLinetypeTableRecord
  2
DASHDOTX2
 70
    0
  3
Dash dot (2x) ____  .  ____  .  ____  .  ___
 72
   65
 73
    4
 40
50.8
 49
25.4
 74
    0
 49
-12.7
 74
    0
 49
0
 74
    0
 49
-12.7
 74
    0
  0
LTYPE
  5
3E
330
5
100
AcDbSymbolTableRecord
100
AcDbLinetypeTableRecord
  2
DIVIDE
 70
    0
  3
Divide ____ . . ____ . . ____ . . ____ . . ____
 72
   65
 73
    6
 40
31.75
 49
12.7
 74
    0
 49
-6.35
 74
    0
 49
0
 74
    0
 49
-6.35
 74
    0
 49
0
 74
    0
 49
-6.35
 74
    0
  0
LTYPE
  5
3F
330
5
100
AcDbSymbolTableRecord
100
AcDbLinetypeTableRecord
  2
DIVIDETINY
 70
    0
  3
Divide (.15x) __..__..__..__..__..__..__..__.._
 72
   65
 73
    6
 40
4.7625
 49
1.905
 74
    0
 49
-0.9525
 74
    0
 49
0
 74
    0
 49
-0.9525
 74
    0
 49
0
 74
    0
 49
-0.9525
 74
    0
  0
LTYPE
  5
40
330
5
100
AcDbSymbolTableRecord
100
AcDbLinetypeTableRecord
  2
DIVIDE2
 70
    0
  3
Divide (.5x) __..__..__..__..__..__..__..__.._
 72
   65
 73
    6
 40
15.875
 49
6.35
 74
    0
 49
-3.175
 74
    0
 49
0
 74
    0
 49
-3.175
 74
    0
 49
0
 74
    0
 49
-3.175
 74
    0
  0
LTYPE
  5
41
330
5
100
AcDbSymbolTableRecord
100
AcDbLinetypeTableRecord
  2
DIVIDEX2
 70
    0
  3
Divide (2x) ________  .  .  ________  .  .  _
 72
   65
 73
    6
 40
63.5
 49
25.4
 74
    0
 49
-12.7
 74
    0
 49
0
 74
    0
 49
-12.7
 74
    0
 49
0
 74
    0
 49
-12.7
 74
    0
  0
LTYPE
  5
42
330
5
100
AcDbSymbolTableRecord
100
AcDbLinetypeTableRecord
  2
BORDER
 70
    0
  3
Border __ __ . __ __ . __ __ . __ __ . __ __ .
 72
   65
 73
    6
 40
44.45
 49
12.7
 74
    0
 49
-6.35
 74
    0
 49
12.7
 74
    0
 49
-6.35
 74
    0
 49
0
 74
    0
 49
-6.35
 74
    0
  0
LTYPE
  5
43
330
5
100
AcDbSymbolTableRecord
100
AcDbLinetypeTableRecord
  2
BORDERTINY
 70
    0
  3
Border (.15x) __.__.__.__.__.__.__.__.__.__.__.
 72
   65
 73
    6
 40
6.6675
 49
1.905
 74
    0
 49
-0.9525
 74
    0
 49
1.905
 74
    0
 49
-0.9525
 74
    0
 49
0
 74
    0
 49
-0.9525
 74
    0
  0
LTYPE
  5
44
330
5
100
AcDbSymbolTableRecord
100
AcDbLinetypeTableRecord
  2
BORDER2
 70
    0
  3
Border (.5x) __.__.__.__.__.__.__.__.__.__.__.
 72
   65
 73
    6
 40
22.225
 49
6.35
 74
    0
 49
-3.175
 74
    0
 49
6.35
 74
    0
 49
-3.175
 74
    0
 49
0
 74
    0
 49
-3.175
 74
    0
  0
LTYPE
  5
45
330
5
100
AcDbSymbolTableRecord
100
AcDbLinetypeTableRecord
  2
BORDERX2
 70
    0
  3
Border (2x) ____  ____  .  ____  ____  .  ___
 72
   65
 73
    6
 40
88.89999999999999
 49
25.4
 74
    0
 49
-12.7
 74
    0
 49
25.4
 74
    0
 49
-12.7
 74
    0
 49
0
 74
    0
 49
-12.7
 74
    0
  0
LTYPE
  5
46
330
5
100
AcDbSymbolTableRecord
100
AcDbLinetypeTableRecord
  2
CENTER
 70
    0
  3
Center ____ _ ____ _ ____ _ ____ _ ____ _ ____
 72
   65
 73
    4
 40
50.8
 49
31.75
 74
    0
 49
-6.35
 74
    0
 49
6.35
 74
    0
 49
-6.35
 74
    0
  0
LTYPE
  5
47
330
5
100
AcDbSymbolTableRecord
100
AcDbLinetypeTableRecord
  2
CENTERTINY
 70
    0
  3
Center (.15x) ___ _ ___ _ ___ _ ___ _ ___ _ ___
 72
   65
 73
    4
 40
7.619999999999999
 49
4.7625
 74
    0
 49
-0.9525
 74
    0
 49
0.9525
 74
    0
 49
-0.9525
 74
    0
  0
LTYPE
  5
48
330
5
100
AcDbSymbolTableRecord
100
AcDbLinetypeTableRecord
  2
CENTER2
 70
    0
  3
Center (.5x) ___ _ ___ _ ___ _ ___ _ ___ _ ___
 72
   65
 73
    4
 40
28.575
 49
19.05
 74
    0
 49
-3.175
 74
    0
 49
3.175
 74
    0
 49
-3.175
 74
    0
  0
LTYPE
  5
49
330
5
100
AcDbSymbolTableRecord
100
AcDbLinetypeTableRecord
  2
CENTERX2
 70
    0
  3
Center (2x) ________  __  ________  __  _____
 72
   65
 73
    4
 40
101.6
 49
63.5
 74
    0
 49
-12.7
 74
    0
 49
12.7
 74
    0
 49
-12.7
 74
    0
  0
ENDTAB
  0
TABLE
  2
LAYER
  5
2
330
0
100
AcDbSymbolTable
 70
    1
  0
LAYER
  5
10
330
2
100
AcDbSymbolTableRecord
100
AcDbLayerTableRecord
  2
0
 70
    0
 62
    7
  6
CONTINUOUS
370
    0
390
F
  0
LAYER
  5
4A
330
2
100
AcDbSymbolTableRecord
100
AcDbLayerTableRecord
  2
dimensions
 70
    0
 62
    2
  6
CONTINUOUS
370
   25
390
F
  0
LAYER
  5
4B
330
2
100
AcDbSymbolTableRecord
100
AcDbLayerTableRecord
  2
invisible
 70
    0
 62
    1
  6
DASHDOTTINY
370
   30
390
F
  0
LAYER
  5
4C
330
2
100
AcDbSymbolTableRecord
100
AcDbLayerTableRecord
  2
legend
 70
    0
 62
    7
  6
CONTINUOUS
370
   50
390
F
  0
ENDTAB
  0
TABLE
  2
STYLE
  5
3
330
0
100
AcDbSymbolTable
 70
    3
  0
STYLE
  5
4D
330
2
100
AcDbSymbolTableRecord
100
AcDbTextStyleTableRecord
  2
standard
 70
    0
 40
0
 41
1
 50
0
 71
    0
 42
1
  3
standard
  4

  0
ENDTAB
  0
TABLE
  2
VIEW
  5
6
330
0
100
AcDbSymbolTable
 70
    0
  0
ENDTAB
  0
TABLE
  2
UCS
  5
7
330
0
100
AcDbSymbolTable
 70
    0
  0
ENDTAB
  0
TABLE
  2
APPID
  5
9
330
0
100
AcDbSymbolTable
 70
    1
  0
APPID
  5
12
330
9
100
AcDbSymbolTableRecord
100
AcDbRegAppTableRecord
  2
ACAD
 70
    0
  0
APPID
  5
4E
330
9
100
AcDbSymbolTableRecord
100
AcDbRegAppTableRecord
  2
LibreCad
 70
    0
  0
ENDTAB
  0
TABLE
  2
DIMSTYLE
  5
A
330
0
100
AcDbSymbolTable
 70
    1
100
AcDbDimStyleTable
 71
    1
  0
DIMSTYLE
105
4F
330
A
100
AcDbSymbolTableRecord
100
AcDbDimStyleTableRecord
  2
Standard
 70
    0
 40
2.5
 41
1
 42
0.625
 43
0.38
 44
1.25
 45
0
 46
0
 47
0
 48
0
 49
1
140
1
141
0.09
142
0
143
25.4
144
1
145
0
146
1
147
0.625
148
0
 71
    0
 72
    0
 73
    0
 74
    1
 75
    0
 76
    0
 77
    0
 78
    8
 79
    0
170
    0
171
    2
172
    0
173
    0
174
    0
175
    0
176
    0
177
    0
178
    0
179
    0
271
    2
272
    4
273
    2
274
    2
275
    0
276
    0
277
    2
278
   44
279
    0
280
    0
281
    0
282
    0
283
    1
284
    0
285
    0
286
    0
288
    0
289
    3
340
standard
341

371
   -2
372
   -2
  0
ENDTAB
  0
TABLE
  2
BLOCK_RECORD
  5
1
330
0
100
AcDbSymbolTable
 70
    2
  0
BLOCK_RECORD
  5
1F
330
1
100
AcDbSymbolTableRecord
100
AcDbBlockTableRecord
  2
*Model_Space
  0
BLOCK_RECORD
  5
1E
330
1
100
AcDbSymbolTableRecord
100
AcDbBlockTableRecord
  2
*Paper_Space
  0
BLOCK_RECORD
  5
50
330
1
100
AcDbSymbolTableRecord
100
AcDbBlockTableRecord
  2
*D12
  0
BLOCK_RECORD
  5
53
330
1
100
AcDbSymbolTableRecord
100
AcDbBlockTableRecord
  2
*D6
  0
BLOCK_RECORD
  5
56
330
1
100
AcDbSymbolTableRecord
100
AcDbBlockTableRecord
  2
*D3
  0
BLOCK_RECORD
  5
59
330
1
100
AcDbSymbolTableRecord
100
AcDbBlockTableRecord
  2
*D19
  0
BLOCK_RECORD
  5
5C
330
1
100
AcDbSymbolTableRecord
100
AcDbBlockTableRecord
  2
*D17
  0
BLOCK_RECORD
  5
5F
330
1
100
AcDbSymbolTableRecord
100
AcDbBlockTableRecord
  2
*D1
  0
BLOCK_RECORD
  5
62
330
1
100
AcDbSymbolTableRecord
100
AcDbBlockTableRecord
  2
*D18
  0
BLOCK_RECORD
  5
65
330
1
100
AcDbSymbolTableRecord
100
AcDbBlockTableRecord
  2
*D11
  0
BLOCK_RECORD
  5
68
330
1
100
AcDbSymbolTableRecord
100
AcDbBlockTableRecord
  2
*D9
  0
BLOCK_RECORD
  5
6B
330
1
100
AcDbSymbolTableRecord
100
AcDbBlockTableRecord
  2
*D14
  0
BLOCK_RECORD
  5
6E
330
1
100
AcDbSymbolTableRecord
100
AcDbBlockTableRecord
  2
*D2
  0
BLOCK_RECORD
  5
71
330
1
100
AcDbSymbolTableRecord
100
AcDbBlockTableRecord
  2
*D5
  0
BLOCK_RECORD
  5
74
330
1
100
AcDbSymbolTableRecord
100
AcDbBlockTableRecord
  2
*D10
  0
BLOCK_RECORD
  5
77
330
1
100
AcDbSymbolTableRecord
100
AcDbBlockTableRecord
  2
*D4
  0
BLOCK_RECORD
  5
7A
330
1
100
AcDbSymbolTableRecord
100
AcDbBlockTableRecord
  2
*D16
  0
BLOCK_RECORD
  5
7D
330
1
100
AcDbSymbolTableRecord
100
AcDbBlockTableRecord
  2
*D8
  0
BLOCK_RECORD
  5
80
330
1
100
AcDbSymbolTableRecord
100
AcDbBlockTableRecord
  2
*D7
  0
BLOCK_RECORD
  5
83
330
1
100
AcDbSymbolTableRecord
100
AcDbBlockTableRecord
  2
*D13
  0
BLOCK_RECORD
  5
86
330
1
100
AcDbSymbolTableRecord
100
AcDbBlockTableRecord
  2
*D15
  0
ENDTAB
  0
ENDSEC
  0
SECTION
  2
BLOCKS
  0
BLOCK
  5
20
330
1F
100
AcDbEntity
  8
0
100
AcDbBlockBegin
  2
*Model_Space
 70
    0
 10
0
 20
0
 30
0
  3
*Model_Space
  1

  0
ENDBLK
  5
21
330
1F
100
AcDbEntity
  8
0
100
AcDbBlockEnd
  0
BLOCK
  5
1C
330
1B
100
AcDbEntity
  8
0
100
AcDbBlockBegin
  2
*Paper_Space
 70
    0
 10
0
 20
0
 30
0
  3
*Paper_Space
  1

  0
ENDBLK
  5
1D
330
1F
100
AcDbEntity
  8
0
100
AcDbBlockEnd
  0
BLOCK
  5
51
330
50
100
AcDbEntity
  8
0
100
AcDbBlockBegin
  2
*D12
 70
    1
 10
0
 20
0
  3
*D12
  1

  0
LINE
  5
89
100
AcDbEntity
  8
dimensions
  6
ByBlock
 62
    0
370
   -2
100
AcDbLine
 10
272.5
 20
220
 11
287.5
 21
220
  0
MTEXT
  5
8A
100
AcDbEntity
  8
dimensions
  6
CONTINUOUS
 62
    0
370
   -2
100
AcDbMText
 10
280
 20
222.8125
 30
0
 40
2.5
 41
2.500000000000155
 71
    5
 72
    1
  1
15
  7
standard
210
0
220
0
230
1
 50
0
 73
    2
 44
1
  0
SOLID
  5
8B
100
AcDbEntity
  8
dimensions
  6
ByBlock
 62
    0
370
   -2
100
AcDbTrace
 10
272.5
 20
220
 30
0
 11
275
 21
220.4162846577728
 31
0
 12
275
 22
219.5837153422272
 32
0
 13
275
 23
219.5837153422272
 33
0
  0
SOLID
  5
8C
100
AcDbEntity
  8
dimensions
  6
ByBlock
 62
    0
370
   -2
100
AcDbTrace
 10
287.5
 20
220
 30
0
 11
285
 21
219.5837153422272
 31
0
 12
285
 22
220.4162846577728
 32
0
 13
285
 23
220.4162846577728
 33
0
  0
ENDBLK
  5
52
330
50
100
AcDbEntity
  8
0
100
AcDbBlockEnd
  0
BLOCK
  5
54
330
53
100
AcDbEntity
  8
0
100
AcDbBlockBegin
  2
*D6
 70
    1
 10
0
 20
0
  3
*D6
  1

  0
LINE
  5
8D
100
AcDbEntity
  8
dimensions
  6
ByBlock
 62
    0
370
   -2
100
AcDbLine
 10
191.5625
 20
170
 11
199.125
 21
170
  0
LINE
  5
8E
100
AcDbEntity
  8
dimensions
  6
ByBlock
 62
    0
370
   -2
100
AcDbLine
 10
191.5625
 20
180
 11
199.125
 21
180
  0
LINE
  5
8F
100
AcDbEntity
  8
dimensions
  6
ByBlock
 62
    0
370
   -2
100
AcDbLine
 10
196
 20
170
 11
196
 21
180
  0
MTEXT
  5
90
100
AcDbEntity
  8
dimensions
  6
CONTINUOUS
 62
    0
370
   -2
100
AcDbMText
 10
193.1875
 20
175
 30
0
 40
2.5
 41
2.5
 71
    5
 72
    1
  1
10
  7
standard
210
0
220
0
230
1
 50
90
 73
    2
 44
1
  0
SOLID
  5
91
100
AcDbEntity
  8
dimensions
  6
ByBlock
 62
    0
370
   -2
100
AcDbTrace
 10
196
 20
170
 30
0
 11
195.5837153422272
 21
172.5
 31
0
 12
196.4162846577728
 22
172.5
 32
0
 13
196.4162846577728
 23
172.5
 33
0
  0
SOLID
  5
92
100
AcDbEntity
  8
dimensions
  6
ByBlock
 62
    0
370
   -2
100
AcDbTrace
 10
196
 20
180
 30
0
 11
196.4162846577728
 21
177.5
 31
0
 12
195.5837153422272
 22
177.5
 32
0
 13
195.5837153422272
 23
177.5
 33
0
  0
ENDBLK
  5
55
330
53
100
AcDbEntity
  8
0
100
AcDbBlockEnd
  0
BLOCK
  5
57
330
56
100
AcDbEntity
  8
0
100
AcDbBlockBegin
  2
*D3
 70
    1
 10
0
 20
0
  3
*D3
  1

  0
LINE
  5
93
100
AcDbEntity
  8
dimensions
  6
ByBlock
 62
    0
370
   -2
100
AcDbLine
 10
120
 20
164
 11
160
 21
164
  0
MTEXT
  5
94
100
AcDbEntity
  8
dimensions
  6
CONTINUOUS
 62
    0
370
   -2
100
AcDbMText
 10
140
 20
166.8125
 30
0
 40
2.5
 41
3.333333333333333
 71
    5
 72
    1
  1
40
  7
standard
210
0
220
0
230
1
 50
0
 73
    2
 44
1
  0
SOLID
  5
95
100
AcDbEntity
  8
dimensions
  6
ByBlock
 62
    0
370
   -2
100
AcDbTrace
 10
120
 20
164
 30
0
 11
122.5
 21
164.4162846577728
 31
0
 12
122.5
 22
163.5837153422272
 32
0
 13
122.5
 23
163.5837153422272
 33
0
  0
SOLID
  5
96
100
AcDbEntity
  8
dimensions
  6
ByBlock
 62
    0
370
   -2
100
AcDbTrace
 10
160
 20
164
 30
0
 11
157.5
 21
163.5837153422272
 31
0
 12
157.5
 22
164.4162846577728
 32
0
 13
157.5
 23
164.4162846577728
 33
0
  0
LINE
  5
97
100
AcDbEntity
  8
dimensions
  6
ByBlock
 62
    0
370
   -2
100
AcDbLine
 10
120
 20
168.4375
 11
120
 21
160.875
  0
LINE
  5
98
100
AcDbEntity
  8
dimensions
  6
ByBlock
 62
    0
370
   -2
100
AcDbLine
 10
160
 20
168.4375
 11
160
 21
160.875
  0
ENDBLK
  5
58
330
56
100
AcDbEntity
  8
0
100
AcDbBlockEnd
  0
BLOCK
  5
5A
330
59
100
AcDbEntity
  8
0
100
AcDbBlockBegin
  2
*D19
 70
    1
 10
0
 20
0
  3
*D19
  1

  0
LINE
  5
99
100
AcDbEntity
  8
dimensions
  6
ByBlock
 62
    0
370
   -2
100
AcDbLine
 10
191.5625
 20
110
 11
199.125
 21
110
  0
LINE
  5
9A
100
AcDbEntity
  8
dimensions
  6
ByBlock
 62
    0
370
   -2
100
AcDbLine
 10
191.5625
 20
90
 11
199.125
 21
90
  0
LINE
  5
9B
100
AcDbEntity
  8
dimensions
  6
ByBlock
 62
    0
370
   -2
100
AcDbLine
 10
196
 20
110
 11
196
 21
90
  0
MTEXT
  5
9C
100
AcDbEntity
  8
dimensions
  6
CONTINUOUS
 62
    0
370
   -2
100
AcDbMText
 10
193.1875
 20
100
 30
0
 40
2.5
 41
3.055555555555556
 71
    5
 72
    1
  1
20
  7
standard
210
0
220
0
230
1
 50
90
 73
    2
 44
1
  0
SOLID
  5
9D
100
AcDbEntity
  8
dimensions
  6
ByBlock
 62
    0
370
   -2
100
AcDbTrace
 10
196
 20
110
 30
0
 11
196.4162846577728
 21
107.5
 31
0
 12
195.5837153422272
 22
107.5
 32
0
 13
195.5837153422272
 23
107.5
 33
0
  0
SOLID
  5
9E
100
AcDbEntity
  8
dimensions
  6
ByBlock
 62
    0
370
   -2
100
AcDbTrace
 10
196
 20
90
 30
0
 11
195.5837153422272
 21
92.5
 31
0
 12
196.4162846577728
 22
92.5
 32
0
 13
196.4162846577728
 23
92.5
 33
0
  0
ENDBLK
  5
5B
330
59
100
AcDbEntity
  8
0
100
AcDbBlockEnd
  0
BLOCK
  5
5D
330
5C
100
AcDbEntity
  8
0
100
AcDbBlockBegin
  2
*D17
 70
    1
 10
0
 20
0
  3
*D17
  1

  0
LINE
  5
9F
100
AcDbEntity
  8
dimensions
  6
ByBlock
 62
    0
370
   -2
100
AcDbLine
 10
170
 20
152
 11
190
 21
152
  0
MTEXT
  5
A0
100
AcDbEntity
  8
dimensions
  6
CONTINUOUS
 62
    0
370
   -2
100
AcDbMText
 10
180
 20
154.8125
 30
0
 40
2.5
 41
3.055555555555556
 71
    5
 72
    1
  1
20
  7
standard
210
0
220
0
230
1
 50
0
 73
    2
 44
1
  0
SOLID
  5
A1
100
AcDbEntity
  8
dimensions
  6
ByBlock
 62
    0
370
   -2
100
AcDbTrace
 10
170
 20
152
 30
0
 11
172.5
 21
152.4162846577728
 31
0
 12
172.5
 22
151.5837153422272
 32
0
 13
172.5
 23
151.5837153422272
 33
0
  0
SOLID
  5
A2
100
AcDbEntity
  8
dimensions
  6
ByBlock
 62
    0
370
   -2
100
AcDbTrace
 10
190
 20
152
 30
0
 11
187.5
 21
151.5837153422272
 31
0
 12
187.5
 22
152.4162846577728
 32
0
 13
187.5
 23
152.4162846577728
 33
0
  0
LINE
  5
A3
100
AcDbEntity
  8
dimensions
  6
ByBlock
 62
    0
370
   -2
100
AcDbLine
 10
170
 20
151.5625
 11
170
 21
155.125
  0
LINE
  5
A4
100
AcDbEntity
  8
dimensions
  6
ByBlock
 62
    0
370
   -2
100
AcDbLine
 10
190
 20
151.5625
 11
190
 21
155.125
  0
ENDBLK
  5
5E
330
5C
100
AcDbEntity
  8
0
100
AcDbBlockEnd
  0
BLOCK
  5
60
330
5F
100
AcDbEntity
  8
0
100
AcDbBlockBegin
  2
*D1
 70
    1
 10
0
 20
0
  3
*D1
  1

  0
LINE
  5
A5
100
AcDbEntity
  8
dimensions
  6
ByBlock
 62
    0
370
   -2
100
AcDbLine
 10
118.4375
 20
240
 11
114.875
 21
240
  0
LINE
  5
A6
100
AcDbEntity
  8
dimensions
  6
ByBlock
 62
    0
370
   -2
100
AcDbLine
 10
118.4375
 20
170
 11
114.875
 21
170
  0
LINE
  5
A7
100
AcDbEntity
  8
dimensions
  6
ByBlock
 62
    0
370
   -2
100
AcDbLine
 10
118
 20
240
 11
118
 21
170
  0
MTEXT
  5
A8
100
AcDbEntity
  8
dimensions
  6
CONTINUOUS
 62
    0
370
   -2
100
AcDbMText
 10
115.1875
 20
205
 30
0
 40
2.5
 41
3.055555555555556
 71
    5
 72
    1
  1
70
  7
standard
210
0
220
0
230
1
 50
90
 73
    2
 44
1
  0
SOLID
  5
A9
100
AcDbEntity
  8
dimensions
  6
ByBlock
 62
    0
370
   -2
100
AcDbTrace
 10
118
 20
240
 30
0
 11
118.4162846577728
 21
237.5
 31
0
 12
117.5837153422272
 22
237.5
 32
0
 13
117.5837153422272
 23
237.5
 33
0
  0
SOLID
  5
AA
100
AcDbEntity
  8
dimensions
  6
ByBlock
 62
    0
370
   -2
100
AcDbTrace
 10
118
 20
170
 30
0
 11
117.5837153422272
 21
172.5
 31
0
 12
118.4162846577728
 22
172.5
 32
0
 13
118.4162846577728
 23
172.5
 33
0
  0
ENDBLK
  5
61
330
5F
100
AcDbEntity
  8
0
100
AcDbBlockEnd
  0
BLOCK
  5
63
330
62
100
AcDbEntity
  8
0
100
AcDbBlockBegin
  2
*D18
 70
    1
 10
0
 20
0
  3
*D18
  1

  0
LINE
  5
AB
100
AcDbEntity
  8
dimensions
  6
ByBlock
 62
    0
370
   -2
100
AcDbLine
 10
191.5625
 20
150
 11
199.125
 21
150
  0
LINE
  5
AC
100
AcDbEntity
  8
dimensions
  6
ByBlock
 62
    0
370
   -2
100
AcDbLine
 10
191.5625
 20
130
 11
199.125
 21
130
  0
LINE
  5
AD
100
AcDbEntity
  8
dimensions
  6
ByBlock
 62
    0
370
   -2
100
AcDbLine
 10
196
 20
150
 11
196
 21
130
  0
MTEXT
  5
AE
100
AcDbEntity
  8
dimensions
  6
CONTINUOUS
 62
    0
370
   -2
100
AcDbMText
 10
193.1875
 20
140
 30
0
 40
2.5
 41
3.055555555555556
 71
    5
 72
    1
  1
20
  7
standard
210
0
220
0
230
1
 50
90
 73
    2
 44
1
  0
SOLID
  5
AF
100
AcDbEntity
  8
dimensions
  6
ByBlock
 62
    0
370
   -2
100
AcDbTrace
 10
196
 20
150
 30
0
 11
196.4162846577728
 21
147.5
 31
0
 12
195.5837153422272
 22
147.5
 32
0
 13
195.5837153422272
 23
147.5
 33
0
  0
SOLID
  5
B0
100
AcDbEntity
  8
dimensions
  6
ByBlock
 62
    0
370
   -2
100
AcDbTrace
 10
196
 20
130
 30
0
 11
195.5837153422272
 21
132.5
 31
0
 12
196.4162846577728
 22
132.5
 32
0
 13
196.4162846577728
 23
132.5
 33
0
  0
ENDBLK
  5
64
330
62
100
AcDbEntity
  8
0
100
AcDbBlockEnd
  0
BLOCK
  5
66
330
65
100
AcDbEntity
  8
0
100
AcDbBlockBegin
  2
*D11
 70
    1
 10
0
 20
0
  3
*D11
  1

  0
LINE
  5
B1
100
AcDbEntity
  8
dimensions
  6
ByBlock
 62
    0
370
   -2
100
AcDbLine
 10
248.4375
 20
225
 11
244.875
 21
225
  0
LINE
  5
B2
100
AcDbEntity
  8
dimensions
  6
ByBlock
 62
    0
370
   -2
100
AcDbLine
 10
248.4375
 20
170
 11
244.875
 21
170
  0
LINE
  5
B3
100
AcDbEntity
  8
dimensions
  6
ByBlock
 62
    0
370
   -2
100
AcDbLine
 10
248
 20
225
 11
248
 21
170
  0
MTEXT
  5
B4
100
AcDbEntity
  8
dimensions
  6
CONTINUOUS
 62
    0
370
   -2
100
AcDbMText
 10
245.1875
 20
197.5
 30
0
 40
2.5
 41
3.055555555555866
 71
    5
 72
    1
  1
55
  7
standard
210
0
220
0
230
1
 50
90
 73
    2
 44
1
  0
SOLID
  5
B5
100
AcDbEntity
  8
dimensions
  6
ByBlock
 62
    0
370
   -2
100
AcDbTrace
 10
248
 20
225
 30
0
 11
248.4162846577728
 21
222.5
 31
0
 12
247.5837153422272
 22
222.5
 32
0
 13
247.5837153422272
 23
222.5
 33
0
  0
SOLID
  5
B6
100
AcDbEntity
  8
dimensions
  6
ByBlock
 62
    0
370
   -2
100
AcDbTrace
 10
248
 20
170
 30
0
 11
247.5837153422272
 21
172.5
 31
0
 12
248.4162846577728
 22
172.5
 32
0
 13
248.4162846577728
 23
172.5
 33
0
  0
ENDBLK
  5
67
330
65
100
AcDbEntity
  8
0
100
AcDbBlockEnd
  0
BLOCK
  5
69
330
68
100
AcDbEntity
  8
0
100
AcDbBlockBegin
  2
*D9
 70
    1
 10
0
 20
0
  3
*D9
  1

  0
LINE
  5
B7
100
AcDbEntity
  8
dimensions
  6
ByBlock
 62
    0
370
   -2
100
AcDbLine
 10
250
 20
164
 11
290
 21
164
  0
MTEXT
  5
B8
100
AcDbEntity
  8
dimensions
  6
CONTINUOUS
 62
    0
370
   -2
100
AcDbMText
 10
270
 20
166.8125
 30
0
 40
2.5
 41
3.333333333333333
 71
    5
 72
    1
  1
40
  7
standard
210
0
220
0
230
1
 50
0
 73
    2
 44
1
  0
SOLID
  5
B9
100
AcDbEntity
  8
dimensions
  6
ByBlock
 62
    0
370
   -2
100
AcDbTrace
 10
250
 20
164
 30
0
 11
252.5
 21
164.4162846577728
 31
0
 12
252.5
 22
163.5837153422272
 32
0
 13
252.5
 23
163.5837153422272
 33
0
  0
SOLID
  5
BA
100
AcDbEntity
  8
dimensions
  6
ByBlock
 62
    0
370
   -2
100
AcDbTrace
 10
290
 20
164
 30
0
 11
287.5
 21
163.5837153422272
 31
0
 12
287.5
 22
164.4162846577728
 32
0
 13
287.5
 23
164.4162846577728
 33
0
  0
LINE
  5
BB
100
AcDbEntity
  8
dimensions
  6
ByBlock
 62
    0
370
   -2
100
AcDbLine
 10
250
 20
168.4375
 11
250
 21
160.875
  0
LINE
  5
BC
100
AcDbEntity
  8
dimensions
  6
ByBlock
 62
    0
370
   -2
100
AcDbLine
 10
290
 20
168.4375
 11
290
 21
160.875
  0
ENDBLK
  5
6A
330
68
100
AcDbEntity
  8
0
100
AcDbBlockEnd
  0
BLOCK
  5
6C
330
6B
100
AcDbEntity
  8
0
100
AcDbBlockBegin
  2
*D14
 70
    1
 10
0
 20
0
  3
*D14
  1

  0
LINE
  5
BD
100
AcDbEntity
  8
dimensions
  6
ByBlock
 62
    0
370
   -2
100
AcDbLine
 10
270
 20
241
 11
280
 21
241
  0
MTEXT
  5
BE
100
AcDbEntity
  8
dimensions
  6
CONTINUOUS
 62
    0
370
   -2
100
AcDbMText
 10
275
 20
243.8125
 30
0
 40
2.5
 41
2.5
 71
    5
 72
    1
  1
10
  7
standard
210
0
220
0
230
1
 50
0
 73
    2
 44
1
  0
SOLID
  5
BF
100
AcDbEntity
  8
dimensions
  6
ByBlock
 62
    0
370
   -2
100
AcDbTrace
 10
270
 20
241
 30
0
 11
272.5
 21
241.4162846577728
 31
0
 12
272.5
 22
240.5837153422272
 32
0
 13
272.5
 23
240.5837153422272
 33
0
  0
SOLID
  5
C0
100
AcDbEntity
  8
dimensions
  6
ByBlock
 62
    0
370
   -2
100
AcDbTrace
 10
280
 20
241
 30
0
 11
277.5
 21
240.5837153422272
 31
0
 12
277.5
 22
241.4162846577728
 32
0
 13
277.5
 23
241.4162846577728
 33
0
  0
LINE
  5
C1
100
AcDbEntity
  8
dimensions
  6
ByBlock
 62
    0
370
   -2
100
AcDbLine
 10
270
 20
241.5625
 11
270
 21
244.125
  0
LINE
  5
C2
100
AcDbEntity
  8
dimensions
  6
ByBlock
 62
    0
370
   -2
100
AcDbLine
 10
280
 20
241.5625
 11
280
 21
244.125
  0
ENDBLK
  5
6D
330
6B
100
AcDbEntity
  8
0
100
AcDbBlockEnd
  0
BLOCK
  5
6F
330
6E
100
AcDbEntity
  8
0
100
AcDbBlockBegin
  2
*D2
 70
    1
 10
0
 20
0
  3
*D2
  1

  0
LINE
  5
C3
100
AcDbEntity
  8
dimensions
  6
ByBlock
 62
    0
370
   -2
100
AcDbLine
 10
120
 20
242
 11
190
 21
242
  0
MTEXT
  5
C4
100
AcDbEntity
  8
dimensions
  6
CONTINUOUS
 62
    0
370
   -2
100
AcDbMText
 10
155
 20
244.8125
 30
0
 40
2.5
 41
3.055555555555556
 71
    5
 72
    1
  1
70
  7
standard
210
0
220
0
230
1
 50
0
 73
    2
 44
1
  0
SOLID
  5
C5
100
AcDbEntity
  8
dimensions
  6
ByBlock
 62
    0
370
   -2
100
AcDbTrace
 10
120
 20
242
 30
0
 11
122.5
 21
242.4162846577728
 31
0
 12
122.5
 22
241.5837153422272
 32
0
 13
122.5
 23
241.5837153422272
 33
0
  0
SOLID
  5
C6
100
AcDbEntity
  8
dimensions
  6
ByBlock
 62
    0
370
   -2
100
AcDbTrace
 10
190
 20
242
 30
0
 11
187.5
 21
241.5837153422272
 31
0
 12
187.5
 22
242.4162846577728
 32
0
 13
187.5
 23
242.4162846577728
 33
0
  0
LINE
  5
C7
100
AcDbEntity
  8
dimensions
  6
ByBlock
 62
    0
370
   -2
100
AcDbLine
 10
120
 20
241.5625
 11
120
 21
245.125
  0
LINE
  5
C8
100
AcDbEntity
  8
dimensions
  6
ByBlock
 62
    0
370
   -2
100
AcDbLine
 10
190
 20
241.5625
 11
190
 21
245.125
  0
ENDBLK
  5
70
330
6E
100
AcDbEntity
  8
0
100
AcDbBlockEnd
  0
BLOCK
  5
72
330
71
100
AcDbEntity
  8
0
100
AcDbBlockBegin
  2
*D5
 70
    1
 10
0
 20
0
  3
*D5
  1

  0
LINE
  5
C9
100
AcDbEntity
  8
dimensions
  6
ByBlock
 62
    0
370
   -2
100
AcDbLine
 10
191.5625
 20
227.5
 11
207.125
 21
227.5
  0
LINE
  5
CA
100
AcDbEntity
  8
dimensions
  6
ByBlock
 62
    0
370
   -2
100
AcDbLine
 10
191.5625
 20
240
 11
207.125
 21
240
  0
LINE
  5
CB
100
AcDbEntity
  8
dimensions
  6
ByBlock
 62
    0
370
   -2
100
AcDbLine
 10
204
 20
227.5
 11
204
 21
240
  0
MTEXT
  5
CC
100
AcDbEntity
  8
dimensions
  6
CONTINUOUS
 62
    0
370
   -2
100
AcDbMText
 10
201.1875
 20
233.75
 30
0
 40
2.5
 41
5.416666666666822
 71
    5
 72
    1
  1
12,5
  7
standard
210
0
220
0
230
1
 50
90
 73
    2
 44
1
  0
SOLID
  5
CD
100
AcDbEntity
  8
dimensions
  6
ByBlock
 62
    0
370
   -2
100
AcDbTrace
 10
204
 20
227.5
 30
0
 11
203.5837153422272
 21
230
 31
0
 12
204.4162846577728
 22
230
 32
0
 13
204.4162846577728
 23
230
 33
0
  0
SOLID
  5
CE
100
AcDbEntity
  8
dimensions
  6
ByBlock
 62
    0
370
   -2
100
AcDbTrace
 10
204
 20
240
 30
0
 11
204.4162846577728
 21
237.5
 31
0
 12
203.5837153422272
 22
237.5
 32
0
 13
203.5837153422272
 23
237.5
 33
0
  0
ENDBLK
  5
73
330
71
100
AcDbEntity
  8
0
100
AcDbBlockEnd
  0
BLOCK
  5
75
330
74
100
AcDbEntity
  8
0
100
AcDbBlockBegin
  2
*D10
 70
    1
 10
0
 20
0
  3
*D10
  1

  0
LINE
  5
CF
100
AcDbEntity
  8
dimensions
  6
ByBlock
 62
    0
370
   -2
100
AcDbLine
 10
290
 20
175
 11
340
 21
175
  0
MTEXT
  5
D0
100
AcDbEntity
  8
dimensions
  6
CONTINUOUS
 62
    0
370
   -2
100
AcDbMText
 10
315
 20
177.8125
 30
0
 40
2.5
 41
3.055555555555711
 71
    5
 72
    1
  1
50
  7
standard
210
0
220
0
230
1
 50
0
 73
    2
 44
1
  0
SOLID
  5
D1
100
AcDbEntity
  8
dimensions
  6
ByBlock
 62
    0
370
   -2
100
AcDbTrace
 10
290
 20
175
 30
0
 11
292.5
 21
175.4162846577728
 31
0
 12
292.5
 22
174.5837153422272
 32
0
 13
292.5
 23
174.5837153422272
 33
0
  0
SOLID
  5
D2
100
AcDbEntity
  8
dimensions
  6
ByBlock
 62
    0
370
   -2
100
AcDbTrace
 10
340
 20
175
 30
0
 11
337.5
 21
174.5837153422272
 31
0
 12
337.5
 22
175.4162846577728
 32
0
 13
337.5
 23
175.4162846577728
 33
0
  0
LINE
  5
D3
100
AcDbEntity
  8
dimensions
  6
ByBlock
 62
    0
370
   -2
100
AcDbLine
 10
290
 20
178.4375
 11
290
 21
171.875
  0
LINE
  5
D4
100
AcDbEntity
  8
dimensions
  6
ByBlock
 62
    0
370
   -2
100
AcDbLine
 10
340
 20
178.4375
 11
340
 21
171.875
  0
ENDBLK
  5
76
330
74
100
AcDbEntity
  8
0
100
AcDbBlockEnd
  0
BLOCK
  5
78
330
77
100
AcDbEntity
  8
0
100
AcDbBlockBegin
  2
*D4
 70
    1
 10
0
 20
0
  3
*D4
  1

  0
LINE
  5
D5
100
AcDbEntity
  8
dimensions
  6
ByBlock
 62
    0
370
   -2
100
AcDbLine
 10
191.5625
 20
240
 11
199.125
 21
240
  0
LINE
  5
D6
100
AcDbEntity
  8
dimensions
  6
ByBlock
 62
    0
370
   -2
100
AcDbLine
 10
191.5625
 20
230
 11
199.125
 21
230
  0
LINE
  5
D7
100
AcDbEntity
  8
dimensions
  6
ByBlock
 62
    0
370
   -2
100
AcDbLine
 10
196
 20
240
 11
196
 21
230
  0
MTEXT
  5
D8
100
AcDbEntity
  8
dimensions
  6
CONTINUOUS
 62
    0
370
   -2
100
AcDbMText
 10
193.1875
 20
235
 30
0
 40
2.5
 41
2.5
 71
    5
 72
    1
  1
10
  7
standard
210
0
220
0
230
1
 50
90
 73
    2
 44
1
  0
SOLID
  5
D9
100
AcDbEntity
  8
dimensions
  6
ByBlock
 62
    0
370
   -2
100
AcDbTrace
 10
196
 20
240
 30
0
 11
196.4162846577728
 21
237.5
 31
0
 12
195.5837153422272
 22
237.5
 32
0
 13
195.5837153422272
 23
237.5
 33
0
  0
SOLID
  5
DA
100
AcDbEntity
  8
dimensions
  6
ByBlock
 62
    0
370
   -2
100
AcDbTrace
 10
196
 20
230
 30
0
 11
195.5837153422272
 21
232.5
 31
0
 12
196.4162846577728
 22
232.5
 32
0
 13
196.4162846577728
 23
232.5
 33
0
  0
ENDBLK
  5
79
330
77
100
AcDbEntity
  8
0
100
AcDbBlockEnd
  0
BLOCK
  5
7B
330
7A
100
AcDbEntity
  8
0
100
AcDbBlockBegin
  2
*D16
 70
    1
 10
0
 20
0
  3
*D16
  1

  0
LINE
  5
DB
100
AcDbEntity
  8
dimensions
  6
ByBlock
 62
    0
370
   -2
100
AcDbLine
 10
281.5625
 20
220
 11
303.125
 21
220
  0
LINE
  5
DC
100
AcDbEntity
  8
dimensions
  6
ByBlock
 62
    0
370
   -2
100
AcDbLine
 10
281.5625
 20
240
 11
303.125
 21
240
  0
LINE
  5
DD
100
AcDbEntity
  8
dimensions
  6
ByBlock
 62
    0
370
   -2
100
AcDbLine
 10
300
 20
220
 11
300
 21
240
  0
MTEXT
  5
DE
100
AcDbEntity
  8
dimensions
  6
CONTINUOUS
 62
    0
370
   -2
100
AcDbMText
 10
297.1875
 20
230
 30
0
 40
2.5
 41
3.055555555555556
 71
    5
 72
    1
  1
20
  7
standard
210
0
220
0
230
1
 50
90
 73
    2
 44
1
  0
SOLID
  5
DF
100
AcDbEntity
  8
dimensions
  6
ByBlock
 62
    0
370
   -2
100
AcDbTrace
 10
300
 20
220
 30
0
 11
299.5837153422272
 21
222.5
 31
0
 12
300.4162846577728
 22
222.5
 32
0
 13
300.4162846577728
 23
222.5
 33
0
  0
SOLID
  5
E0
100
AcDbEntity
  8
dimensions
  6
ByBlock
 62
    0
370
   -2
100
AcDbTrace
 10
300
 20
240
 30
0
 11
300.4162846577728
 21
237.5
 31
0
 12
299.5837153422272
 22
237.5
 32
0
 13
299.5837153422272
 23
237.5
 33
0
  0
ENDBLK
  5
7C
330
7A
100
AcDbEntity
  8
0
100
AcDbBlockEnd
  0
BLOCK
  5
7E
330
7D
100
AcDbEntity
  8
0
100
AcDbBlockBegin
  2
*D8
 70
    1
 10
0
 20
0
  3
*D8
  1

  0
LINE
  5
E1
100
AcDbEntity
  8
dimensions
  6
ByBlock
 62
    0
370
   -2
100
AcDbLine
 10
153.2917960675006
 20
196.6458980337503
 11
166.7082039324994
 21
203.3541019662497
  0
MTEXT
  5
E2
100
AcDbEntity
  8
dimensions
  6
CONTINUOUS
 62
    0
370
   -2
100
AcDbMText
 10
158.7422117626564
 20
202.5155764746873
 30
0
 40
2.5
 41
2.500000000000155
 71
    5
 72
    1
  1
15
  7
standard
210
0
220
0
230
1
 50
26.56505117707799
 73
    2
 44
1
  0
SOLID
  5
E3
100
AcDbEntity
  8
dimensions
  6
ByBlock
 62
    0
370
   -2
100
AcDbTrace
 10
153.2917960675006
 20
196.6458980337503
 30
0
 11
155.3416958864464
 21
198.1362683396083
 31
0
 12
155.7140322035545
 22
197.3915957053921
 32
0
 13
155.7140322035545
 23
197.3915957053921
 33
0
  0
SOLID
  5
E4
100
AcDbEntity
  8
dimensions
  6
ByBlock
 62
    0
370
   -2
100
AcDbTrace
 10
166.7082039324994
 20
203.3541019662497
 30
0
 11
164.6583041135536
 21
201.8637316603917
 31
0
 12
164.2859677964455
 22
202.6084042946079
 32
0
 13
164.2859677964455
 23
202.6084042946079
 33
0
  0
ENDBLK
  5
7F
330
7D
100
AcDbEntity
  8
0
100
AcDbBlockEnd
  0
BLOCK
  5
81
330
80
100
AcDbEntity
  8
0
100
AcDbBlockBegin
  2
*D7
 70
    1
 10
0
 20
0
  3
*D7
  1

  0
LINE
  5
E5
100
AcDbEntity
  8
dimensions
  6
ByBlock
 62
    0
370
   -2
100
AcDbLine
 10
191.5625
 20
200
 11
199.125
 21
200
  0
LINE
  5
E6
100
AcDbEntity
  8
dimensions
  6
ByBlock
 62
    0
370
   -2
100
AcDbLine
 10
191.5625
 20
180
 11
199.125
 21
180
  0
LINE
  5
E7
100
AcDbEntity
  8
dimensions
  6
ByBlock
 62
    0
370
   -2
100
AcDbLine
 10
196
 20
200
 11
196
 21
180
  0
MTEXT
  5
E8
100
AcDbEntity
  8
dimensions
  6
CONTINUOUS
 62
    0
370
   -2
100
AcDbMText
 10
193.1875
 20
190
 30
0
 40
2.5
 41
3.055555555555556
 71
    5
 72
    1
  1
20
  7
standard
210
0
220
0
230
1
 50
90
 73
    2
 44
1
  0
SOLID
  5
E9
100
AcDbEntity
  8
dimensions
  6
ByBlock
 62
    0
370
   -2
100
AcDbTrace
 10
196
 20
200
 30
0
 11
196.4162846577728
 21
197.5
 31
0
 12
195.5837153422272
 22
197.5
 32
0
 13
195.5837153422272
 23
197.5
 33
0
  0
SOLID
  5
EA
100
AcDbEntity
  8
dimensions
  6
ByBlock
 62
    0
370
   -2
100
AcDbTrace
 10
196
 20
180
 30
0
 11
195.5837153422272
 21
182.5
 31
0
 12
196.4162846577728
 22
182.5
 32
0
 13
196.4162846577728
 23
182.5
 33
0
  0
ENDBLK
  5
82
330
80
100
AcDbEntity
  8
0
100
AcDbBlockEnd
  0
BLOCK
  5
84
330
83
100
AcDbEntity
  8
0
100
AcDbBlockBegin
  2
*D13
 70
    1
 10
0
 20
0
  3
*D13
  1

  0
LINE
  5
EB
100
AcDbEntity
  8
dimensions
  6
ByBlock
 62
    0
370
   -2
100
AcDbLine
 10
250
 20
241
 11
270
 21
241
  0
MTEXT
  5
EC
100
AcDbEntity
  8
dimensions
  6
CONTINUOUS
 62
    0
370
   -2
100
AcDbMText
 10
260
 20
243.8125
 30
0
 40
2.5
 41
3.055555555555556
 71
    5
 72
    1
  1
20
  7
standard
210
0
220
0
230
1
 50
0
 73
    2
 44
1
  0
SOLID
  5
ED
100
AcDbEntity
  8
dimensions
  6
ByBlock
 62
    0
370
   -2
100
AcDbTrace
 10
250
 20
241
 30
0
 11
252.5
 21
241.4162846577728
 31
0
 12
252.5
 22
240.5837153422272
 32
0
 13
252.5
 23
240.5837153422272
 33
0
  0
SOLID
  5
EE
100
AcDbEntity
  8
dimensions
  6
ByBlock
 62
    0
370
   -2
100
AcDbTrace
 10
270
 20
241
 30
0
 11
267.5
 21
240.5837153422272
 31
0
 12
267.5
 22
241.4162846577728
 32
0
 13
267.5
 23
241.4162846577728
 33
0
  0
LINE
  5
EF
100
AcDbEntity
  8
dimensions
  6
ByBlock
 62
    0
370
   -2
100
AcDbLine
 10
250
 20
226.5625
 11
250
 21
244.125
  0
LINE
  5
F0
100
AcDbEntity
  8
dimensions
  6
ByBlock
 62
    0
370
   -2
100
AcDbLine
 10
270
 20
241.5625
 11
270
 21
244.125
  0
ENDBLK
  5
85
330
83
100
AcDbEntity
  8
0
100
AcDbBlockEnd
  0
BLOCK
  5
87
330
86
100
AcDbEntity
  8
0
100
AcDbBlockBegin
  2
*D15
 70
    1
 10
0
 20
0
  3
*D15
  1

  0
LINE
  5
F1
100
AcDbEntity
  8
dimensions
  6
ByBlock
 62
    0
370
   -2
100
AcDbLine
 10
280
 20
241
 11
290
 21
241
  0
MTEXT
  5
F2
100
AcDbEntity
  8
dimensions
  6
CONTINUOUS
 62
    0
370
   -2
100
AcDbMText
 10
285
 20
243.8125
 30
0
 40
2.5
 41
2.5
 71
    5
 72
    1
  1
10
  7
standard
210
0
220
0
230
1
 50
0
 73
    2
 44
1
  0
SOLID
  5
F3
100
AcDbEntity
  8
dimensions
  6
ByBlock
 62
    0
370
   -2
100
AcDbTrace
 10
280
 20
241
 30
0
 11
282.5
 21
241.4162846577728
 31
0
 12
282.5
 22
240.5837153422272
 32
0
 13
282.5
 23
240.5837153422272
 33
0
  0
SOLID
  5
F4
100
AcDbEntity
  8
dimensions
  6
ByBlock
 62
    0
370
   -2
100
AcDbTrace
 10
290
 20
241
 30
0
 11
287.5
 21
240.5837153422272
 31
0
 12
287.5
 22
241.4162846577728
 32
0
 13
287.5
 23
241.4162846577728
 33
0
  0
LINE
  5
F5
100
AcDbEntity
  8
dimensions
  6
ByBlock
 62
    0
370
   -2
100
AcDbLine
 10
280
 20
241.5625
 11
280
 21
244.125
  0
LINE
  5
F6
100
AcDbEntity
  8
dimensions
  6
ByBlock
 62
    0
370
   -2
100
AcDbLine
 10
290
 20
231.5625
 11
290
 21
244.125
  0
ENDBLK
  5
88
330
86
100
AcDbEntity
  8
0
100
AcDbBlockEnd
  0
ENDSEC
  0
SECTION
  2
ENTITIES
  0
LINE
  5
F7
100
AcDbEntity
  8
legend
  6
ByLayer
 62
  256
370
   -1
100
AcDbLine
 10
0
 20
0
 11
390
 21
0
  0
LINE
  5
F8
100
AcDbEntity
  8
legend
  6
ByLayer
 62
  256
370
   -1
100
AcDbLine
 10
390
 20
0
 11
390
 21
277
  0
LINE
  5
F9
100
AcDbEntity
  8
legend
  6
ByLayer
 62
  256
370
   -1
100
AcDbLine
 10
390
 20
277
 11
0
 21
277
  0
LINE
  5
FA
100
AcDbEntity
  8
legend
  6
ByLayer
 62
  256
370
   -1
100
AcDbLine
 10
0
 20
277
 11
0
 21
0
  0
LINE
  5
FB
100
AcDbEntity
  8
legend
  6
ByLayer
 62
  256
370
   -1
100
AcDbLine
 10
330
 20
7.34788079488412e-15
 11
330
 21
10
  0
LINE
  5
FC
100
AcDbEntity
  8
legend
  6
ByLayer
 62
  256
370
   -1
100
AcDbLine
 10
310
 20
9.797174393178826e-15
 11
310
 21
30
  0
LINE
  5
FD
100
AcDbEntity
  8
legend
  6
ByLayer
 62
  256
370
   -1
100
AcDbLine
 10
350
 20
4.898587196589413e-15
 11
350
 21
30
  0
LINE
  5
FE
100
AcDbEntity
  8
legend
  6
ByLayer
 62
  256
370
   -1
100
AcDbLine
 10
180
 20
2.571758278209442e-14
 11
180
 21
30
  0
LINE
  5
FF
100
AcDbEntity
  8
legend
  6
ByLayer
 62
  256
370
   -1
100
AcDbLine
 10
125
 20
3.245314017740486e-14
 11
125
 21
30
  0
LINE
  5
100
100
AcDbEntity
  8
legend
  6
ByLayer
 62
  256
370
   -1
100
AcDbLine
 10
125
 20
20
 11
390
 21
20
  0
LINE
  5
101
100
AcDbEntity
  8
legend
  6
ByLayer
 62
  256
370
   -1
100
AcDbLine
 10
125
 20
10
 11
390
 21
10
  0
LINE
  5
102
100
AcDbEntity
  8
legend
  6
ByLayer
 62
  256
370
   -1
100
AcDbLine
 10
125
 20
30
 11
390
 21
30
  0
LINE
  5
103
100
AcDbEntity
  8
legend
  6
ByLayer
 62
  256
370
   -1
100
AcDbLine
 10
230
 20
20
 11
230
 21
30
  0
LINE
  5
104
100
AcDbEntity
  8
legend
  6
ByLayer
 62
  256
370
   -1
100
AcDbLine
 10
-20
 20
277
 11
-20
 21
7.347880794884118e-15
  0
LINE
  5
105
100
AcDbEntity
  8
legend
  6
ByLayer
 62
  256
370
   -1
100
AcDbLine
 10
390
 20
287
 11
3.061616997868383e-15
 21
287
  0
LINE
  5
106
100
AcDbEntity
  8
legend
  6
ByLayer
 62
  256
370
   -1
100
AcDbLine
 10
400
 20
-2.449293598294707e-15
 11
400
 21
277
  0
LINE
  5
107
100
AcDbEntity
  8
legend
  6
ByLayer
 62
  256
370
   -1
100
AcDbLine
 10
-1.83697019872103e-15
 20
-10
 11
390
 21
-10
  0
LINE
  5
108
100
AcDbEntity
  8
legend
  6
ByLayer
 62
  256
370
   -1
100
AcDbLine
 10
390
 20
-10
 11
400
 21
-10
  0
LINE
  5
109
100
AcDbEntity
  8
legend
  6
ByLayer
 62
  256
370
   -1
100
AcDbLine
 10
400
 20
-10
 11
400
 21
0
  0
LINE
  5
10A
100
AcDbEntity
  8
legend
  6
ByLayer
 62
  256
370
   -1
100
AcDbLine
 10
390
 20
287
 11
400
 21
287
  0
LINE
  5
10B
100
AcDbEntity
  8
legend
  6
ByLayer
 62
  256
370
   -1
100
AcDbLine
 10
400
 20
287
 11
400
 21
277
  0
LINE
  5
10C
100
AcDbEntity
  8
legend
  6
ByLayer
 62
  256
370
   -1
100
AcDbLine
 10
-20
 20
277
 11
-20
 21
287
  0
LINE
  5
10D
100
AcDbEntity
  8
legend
  6
ByLayer
 62
  256
370
   -1
100
AcDbLine
 10
-20
 20
287
 11
0
 21
287
  0
LINE
  5
10E
100
AcDbEntity
  8
legend
  6
ByLayer
 62
  256
370
   -1
100
AcDbLine
 10
-20
 20
0
 11
-20
 21
-10
  0
LINE
  5
10F
100
AcDbEntity
  8
legend
  6
ByLayer
 62
  256
370
   -1
100
AcDbLine
 10
-20
 20
-10
 11
0
 21
-10
  0
TEXT
  5
110
100
AcDbEntity
  8
legend
  6
ByLayer
 62
  256
370
   -1
100
AcDbText
 10
141.28864534307
 20
22.52283882926748
 30
0
 40
5
  1
OR. 00
 50
0
 41
1
 51
0
  7
standard
 71
    0
210
0
220
0
230
1
100
AcDbText
  0
TEXT
  5
111
100
AcDbEntity
  8
legend
  6
ByLayer
 62
  256
370
   -1
100
AcDbText
 10
129.5060819493596
 20
2.321491865929621
 30
0
 40
5
  1
CH. KABOURIS
 50
0
 41
1
 51
0
  7
standard
 71
    0
210
0
220
0
230
1
100
AcDbText
  0
TEXT
  5
112
100
AcDbEntity
  8
legend
  6
ByLayer
 62
  256
370
   -1
100
AcDbText
 10
195.1711375856546
 20
22.55163526903061
 30
0
 40
5
  1
UNIWA
 50
0
 41
1
 51
0
  7
standard
 71
    0
210
0
220
0
230
1
100
AcDbText
  0
TEXT
  5
113
100
AcDbEntity
  8
legend
  6
ByLayer
 62
  256
370
   -1
100
AcDbText
 10
209.7633721714979
 20
12.27074271991371
 30
0
 40
5
  1
MECHANICAL DRAWING
 50
0
 41
1
 51
0
  7
standard
 71
    0
210
0
220
0
230
1
100
AcDbText
  0
TEXT
  5
114
100
AcDbEntity
  8
legend
  6
ByLayer
 62
  256
370
   -1
100
AcDbText
 10
211.7641261620032
 20
2.653133561062424
 30
0
 40
5
  1
CHRISTOS MARGIOLIS
 50
0
 41
1
 51
0
  7
standard
 71
    0
210
0
220
0
230
1
100
AcDbText
  0
TEXT
  5
115
100
AcDbEntity
  8
legend
  6
ByLayer
 62
  256
370
   -1
100
AcDbText
 10
326.3354280106782
 20
12.10492187234731
 30
0
 40
5
  1
ICE
 50
0
 41
1
 51
0
  7
standard
 71
    0
210
0
220
0
230
1
100
AcDbText
  0
TEXT
  5
116
100
AcDbEntity
  8
legend
  6
ByLayer
 62
  256
370
   -1
100
AcDbText
 10
315.5570729188621
 20
2.321491865929621
 30
0
 40
5
  1
D01
 50
0
 41
1
 51
0
  7
standard
 71
    0
210
0
220
0
230
1
100
AcDbText
  0
TEXT
  5
117
100
AcDbEntity
  8
legend
  6
ByLayer
 62
  256
370
   -1
100
AcDbText
 10
335.6213954743967
 20
2.487312713496023
 30
0
 40
5
  1
9th
 50
0
 41
1
 51
0
  7
standard
 71
    0
210
0
220
0
230
1
100
AcDbText
  0
TEXT
  5
118
100
AcDbEntity
  8
legend
  6
ByLayer
 62
  256
370
   -1
100
AcDbText
 10
326.0037863155454
 20
23.04909781172981
 30
0
 40
5
  1
1st
 50
0
 41
1
 51
0
  7
standard
 71
    0
210
0
220
0
230
1
100
AcDbText
  0
TEXT
  5
119
100
AcDbEntity
  8
legend
  6
ByLayer
 62
  256
370
   -1
100
AcDbText
 10
356.3490014201969
 20
2.15567101836322
 30
0
 40
5
  1
19390133
 50
0
 41
1
 51
0
  7
standard
 71
    0
210
0
220
0
230
1
100
AcDbText
  0
TEXT
  5
11A
100
AcDbEntity
  8
legend
  6
ByLayer
 62
  256
370
   -1
100
AcDbText
 10
355.0224346396657
 20
12.60238441504652
 30
0
 40
5
  1
1:1 RATIO
 50
0
 41
1
 51
0
  7
standard
 71
    0
210
0
220
0
230
1
100
AcDbText
  0
TEXT
  5
11B
100
AcDbEntity
  8
legend
  6
ByLayer
 62
  256
370
   -1
100
AcDbText
 10
246.0000021200215
 20
23
 30
0
 40
5
  1
ASSIGNMENT 3
 50
0
 41
1
 51
0
  7
standard
 71
    0
210
0
220
0
230
1
100
AcDbText
  0
LINE
  5
11C
100
AcDbEntity
  8
0
  6
ByLayer
 62
  256
370
   -1
100
AcDbLine
 10
120
 20
170
 11
190
 21
170
  0
LINE
  5
11D
100
AcDbEntity
  8
0
  6
ByLayer
 62
  256
370
   -1
100
AcDbLine
 10
190
 20
170
 11
190
 21
240
  0
LINE
  5
11E
100
AcDbEntity
  8
0
  6
ByLayer
 62
  256
370
   -1
100
AcDbLine
 10
190
 20
240
 11
120
 21
240
  0
LINE
  5
11F
100
AcDbEntity
  8
0
  6
ByLayer
 62
  256
370
   -1
100
AcDbLine
 10
120
 20
240
 11
120
 21
170
  0
LINE
  5
120
100
AcDbEntity
  8
0
  6
ByLayer
 62
  256
370
   -1
100
AcDbLine
 10
120
 20
180
 11
190
 21
180
  0
LINE
  5
121
100
AcDbEntity
  8
0
  6
ByLayer
 62
  256
370
   -1
100
AcDbLine
 10
120
 20
230
 11
190
 21
230
  0
LINE
  5
122
100
AcDbEntity
  8
0
  6
ByLayer
 62
  256
370
   -1
100
AcDbLine
 10
152.5
 20
200
 11
120
 21
200
  0
LINE
  5
123
100
AcDbEntity
  8
0
  6
ByLayer
 62
  256
370
   -1
100
AcDbLine
 10
190
 20
200
 11
167.5
 21
200
  0
LINE
  5
124
100
AcDbEntity
  8
invisible
  6
ByLayer
 62
  256
370
   -1
100
AcDbLine
 10
190
 20
227.5
 11
120
 21
227.5
  0
LINE
  5
125
100
AcDbEntity
  8
invisible
  6
ByLayer
 62
  256
370
   -1
100
AcDbLine
 10
190
 20
212.5
 11
120
 21
212.5
  0
CIRCLE
  5
126
100
AcDbEntity
  8
0
  6
ByLayer
 62
  256
370
   -1
100
AcDbCircle
 10
160
 20
200
 40
7.5
  0
LINE
  5
127
100
AcDbEntity
  8
0
  6
ByLayer
 62
  256
370
   -1
100
AcDbLine
 10
160
 20
192.5
 11
160
 21
180
  0
LINE
  5
128
100
AcDbEntity
  8
0
  6
ByLayer
 62
  256
370
   -1
100
AcDbLine
 10
270
 20
240
 11
270
 21
170
  0
LINE
  5
129
100
AcDbEntity
  8
0
  6
ByLayer
 62
  256
370
   -1
100
AcDbLine
 10
270
 20
170
 11
290
 21
170
  0
LINE
  5
12A
100
AcDbEntity
  8
0
  6
ByLayer
 62
  256
370
   -1
100
AcDbLine
 10
290
 20
170
 11
290
 21
180
  0
LINE
  5
12B
100
AcDbEntity
  8
0
  6
ByLayer
 62
  256
370
   -1
100
AcDbLine
 10
290
 20
180
 11
340
 21
180
  0
LINE
  5
12C
100
AcDbEntity
  8
0
  6
ByLayer
 62
  256
370
   -1
100
AcDbLine
 10
340
 20
180
 11
340
 21
200
  0
LINE
  5
12D
100
AcDbEntity
  8
0
  6
ByLayer
 62
  256
370
   -1
100
AcDbLine
 10
340
 20
200
 11
290
 21
200
  0
LINE
  5
12E
100
AcDbEntity
  8
0
  6
ByLayer
 62
  256
370
   -1
100
AcDbLine
 10
290
 20
200
 11
290
 21
230
  0
LINE
  5
12F
100
AcDbEntity
  8
0
  6
ByLayer
 62
  256
370
   -1
100
AcDbLine
 10
290
 20
230
 11
280
 21
240
  0
LINE
  5
130
100
AcDbEntity
  8
0
  6
ByLayer
 62
  256
370
   -1
100
AcDbLine
 10
280
 20
240
 11
270
 21
240
  0
LINE
  5
131
100
AcDbEntity
  8
0
  6
ByLayer
 62
  256
370
   -1
100
AcDbLine
 10
270
 20
170
 11
250
 21
170
  0
LINE
  5
132
100
AcDbEntity
  8
0
  6
ByLayer
 62
  256
370
   -1
100
AcDbLine
 10
250
 20
170
 11
250
 21
225
  0
LINE
  5
133
100
AcDbEntity
  8
0
  6
ByLayer
 62
  256
370
   -1
100
AcDbLine
 10
250
 20
225
 11
270
 21
240
  0
CIRCLE
  5
134
100
AcDbEntity
  8
0
  6
ByLayer
 62
  256
370
   -1
100
AcDbCircle
 10
280
 20
220
 40
7.5
  0
LINE
  5
135
100
AcDbEntity
  8
invisible
  6
ByLayer
 62
  256
370
   -1
100
AcDbLine
 10
250
 20
207.5
 11
255.2
 21
207.5
  0
LINE
  5
136
100
AcDbEntity
  8
invisible
  6
ByLayer
 62
  256
370
   -1
100
AcDbLine
 10
255.2
 20
207.5
 11
290
 21
207.5
  0
LINE
  5
137
100
AcDbEntity
  8
invisible
  6
ByLayer
 62
  256
370
   -1
100
AcDbLine
 10
250
 20
192.5
 11
340
 21
192.5
  0
LINE
  5
138
100
AcDbEntity
  8
0
  6
ByLayer
 62
  256
370
   -1
100
AcDbLine
 10
120
 20
130
 11
190
 21
130
  0
LINE
  5
139
100
AcDbEntity
  8
0
  6
ByLayer
 62
  256
370
   -1
100
AcDbLine
 10
190
 20
130
 11
190
 21
150
  0
LINE
  5
13A
100
AcDbEntity
  8
0
  6
ByLayer
 62
  256
370
   -1
100
AcDbLine
 10
190
 20
150
 11
170
 21
150
  0
LINE
  5
13B
100
AcDbEntity
  8
0
  6
ByLayer
 62
  256
370
   -1
100
AcDbLine
 10
170
 20
150
 11
170
 21
130
  0
LINE
  5
13C
100
AcDbEntity
  8
0
  6
ByLayer
 62
  256
370
   -1
100
AcDbLine
 10
190
 20
130
 11
190
 21
90
  0
LINE
  5
13D
100
AcDbEntity
  8
0
  6
ByLayer
 62
  256
370
   -1
100
AcDbLine
 10
120
 20
110
 11
190
 21
110
  0
LINE
  5
13E
100
AcDbEntity
  8
0
  6
ByLayer
 62
  256
370
   -1
100
AcDbLine
 10
120
 20
130
 11
120
 21
110
  0
LINE
  5
13F
100
AcDbEntity
  8
0
  6
ByLayer
 62
  256
370
   -1
100
AcDbLine
 10
120
 20
110
 11
120
 21
60
  0
LINE
  5
140
100
AcDbEntity
  8
0
  6
ByLayer
 62
  256
370
   -1
100
AcDbLine
 10
120
 20
60
 11
160
 21
60
  0
LINE
  5
141
100
AcDbEntity
  8
0
  6
ByLayer
 62
  256
370
   -1
100
AcDbLine
 10
160
 20
60
 11
190
 21
90
  0
LINE
  5
142
100
AcDbEntity
  8
0
  6
ByLayer
 62
  256
370
   -1
100
AcDbLine
 10
190
 20
120
 11
120
 21
120
  0
LINE
  5
143
100
AcDbEntity
  8
invisible
  6
ByLayer
 62
  256
370
   -1
100
AcDbLine
 10
167.5
 20
110
 11
167.5
 21
130
  0
LINE
  5
144
100
AcDbEntity
  8
invisible
  6
ByLayer
 62
  256
370
   -1
100
AcDbLine
 10
152.5
 20
110
 11
152.5
 21
130
  0
LINE
  5
145
100
AcDbEntity
  8
0
  6
ByLayer
 62
  256
370
   -1
100
AcDbLine
 10
152.5
 20
110
 11
152.5
 21
60
  0
LINE
  5
146
100
AcDbEntity
  8
0
  6
ByLayer
 62
  256
370
   -1
100
AcDbLine
 10
167.5
 20
110
 11
167.5
 21
67.50000000000001
  0
LINE
  5
147
100
AcDbEntity
  8
invisible
  6
ByLayer
 62
  256
370
   -1
100
AcDbLine
 10
190
 20
127.5
 11
120
 21
127.5
  0
LINE
  5
148
100
AcDbEntity
  8
invisible
  6
ByLayer
 62
  256
370
   -1
100
AcDbLine
 10
120
 20
112.5
 11
190
 21
112.5
  0
TEXT
  5
149
100
AcDbEntity
  8
legend
  6
ByLayer
 62
  256
370
   -1
100
AcDbText
 10
351.5401968407712
 20
22.55163526903061
 30
0
 40
5
  1
02/01/2024
 50
0
 41
1
 51
0
  7
standard
 71
    0
210
0
220
0
230
1
100
AcDbText
  0
DIMENSION
  5
14A
100
AcDbEntity
  8
dimensions
  6
ByLayer
 62
  256
370
   -1
100
AcDbDimension
  2
*D1
 10
118
 20
170
 30
0
 11
115.1875
 21
205
 31
0
 70
   33
 71
    5
  3
Standard
 53
0
210
0
220
0
230
1
100
AcDbAlignedDimension
 13
120
 23
240
 33
0
 14
120
 24
170
 34
0
  0
DIMENSION
  5
14B
100
AcDbEntity
  8
dimensions
  6
ByLayer
 62
  256
370
   -1
100
AcDbDimension
  2
*D2
 10
190
 20
242
 30
0
 11
155
 21
244.8125
 31
0
 70
   32
 71
    5
  3
Standard
 53
0
210
0
220
0
230
1
100
AcDbAlignedDimension
 13
120
 23
240
 33
0
 14
190
 24
240
 34
0
100
AcDbRotatedDimension
  0
DIMENSION
  5
14C
100
AcDbEntity
  8
dimensions
  6
ByLayer
 62
  256
370
   -1
100
AcDbDimension
  2
*D3
 10
160
 20
164
 30
0
 11
140
 21
166.8125
 31
0
 70
   32
 71
    5
  3
Standard
 53
0
210
0
220
0
230
1
100
AcDbAlignedDimension
 13
120
 23
170
 33
0
 14
160
 24
170
 34
0
100
AcDbRotatedDimension
  0
DIMENSION
  5
14D
100
AcDbEntity
  8
dimensions
  6
ByLayer
 62
  256
370
   -1
100
AcDbDimension
  2
*D4
 10
196
 20
230
 30
0
 11
193.1875
 21
235
 31
0
 70
   33
 71
    5
  3
Standard
 53
0
210
0
220
0
230
1
100
AcDbAlignedDimension
 13
190
 23
240
 33
0
 14
190
 24
230
 34
0
  0
DIMENSION
  5
14E
100
AcDbEntity
  8
dimensions
  6
ByLayer
 62
  256
370
   -1
100
AcDbDimension
  2
*D5
 10
204
 20
240
 30
0
 11
201.1875
 21
233.75
 31
0
 70
   33
 71
    5
  3
Standard
 53
0
210
0
220
0
230
1
100
AcDbAlignedDimension
 13
190
 23
227.5
 33
0
 14
190
 24
240
 34
0
  0
DIMENSION
  5
14F
100
AcDbEntity
  8
dimensions
  6
ByLayer
 62
  256
370
   -1
100
AcDbDimension
  2
*D6
 10
196
 20
180
 30
0
 11
193.1875
 21
175
 31
0
 70
   33
 71
    5
  3
Standard
 53
0
210
0
220
0
230
1
100
AcDbAlignedDimension
 13
190
 23
170
 33
0
 14
190
 24
180
 34
0
  0
DIMENSION
  5
150
100
AcDbEntity
  8
dimensions
  6
ByLayer
 62
  256
370
   -1
100
AcDbDimension
  2
*D7
 10
196
 20
180
 30
0
 11
193.1875
 21
190
 31
0
 70
   33
 71
    5
  3
Standard
 53
0
210
0
220
0
230
1
100
AcDbAlignedDimension
 13
190
 23
200
 33
0
 14
190
 24
180
 34
0
  0
DIMENSION
  5
151
100
AcDbEntity
  8
dimensions
  6
ByLayer
 62
  256
370
   -1
100
AcDbDimension
  2
*D8
 10
153.2917960675006
 20
196.6458980337503
 30
0
 11
158.7422117626564
 21
202.5155764746873
 31
0
 70
   35
 71
    5
  3
Standard
 53
0
210
0
220
0
230
1
100
AcDbDiametricDimension
 15
166.7082039324994
 25
203.3541019662497
 35
0
 40
0
  0
DIMENSION
  5
152
100
AcDbEntity
  8
dimensions
  6
ByLayer
 62
  256
370
   -1
100
AcDbDimension
  2
*D9
 10
290
 20
164
 30
0
 11
270
 21
166.8125
 31
0
 70
   32
 71
    5
  3
Standard
 53
0
210
0
220
0
230
1
100
AcDbAlignedDimension
 13
250
 23
170
 33
0
 14
290
 24
170
 34
0
100
AcDbRotatedDimension
  0
DIMENSION
  5
153
100
AcDbEntity
  8
dimensions
  6
ByLayer
 62
  256
370
   -1
100
AcDbDimension
  2
*D10
 10
340
 20
175
 30
0
 11
315
 21
177.8125
 31
0
 70
   32
 71
    5
  3
Standard
 53
0
210
0
220
0
230
1
100
AcDbAlignedDimension
 13
290
 23
180
 33
0
 14
340
 24
180
 34
0
100
AcDbRotatedDimension
  0
DIMENSION
  5
154
100
AcDbEntity
  8
dimensions
  6
ByLayer
 62
  256
370
   -1
100
AcDbDimension
  2
*D11
 10
248
 20
170
 30
0
 11
245.1875
 21
197.5
 31
0
 70
   33
 71
    5
  3
Standard
 53
0
210
0
220
0
230
1
100
AcDbAlignedDimension
 13
250
 23
225
 33
0
 14
250
 24
170
 34
0
  0
DIMENSION
  5
155
100
AcDbEntity
  8
dimensions
  6
ByLayer
 62
  256
370
   -1
100
AcDbDimension
  2
*D12
 10
272.5
 20
220
 30
0
 11
280
 21
222.8125
 31
0
 70
   35
 71
    5
  3
Standard
 53
0
210
0
220
0
230
1
100
AcDbDiametricDimension
 15
287.5
 25
220
 35
0
 40
0
  0
DIMENSION
  5
156
100
AcDbEntity
  8
dimensions
  6
ByLayer
 62
  256
370
   -1
100
AcDbDimension
  2
*D13
 10
270
 20
241
 30
0
 11
260
 21
243.8125
 31
0
 70
   32
 71
    5
  3
Standard
 53
0
210
0
220
0
230
1
100
AcDbAlignedDimension
 13
250
 23
225
 33
0
 14
270
 24
240
 34
0
100
AcDbRotatedDimension
  0
DIMENSION
  5
157
100
AcDbEntity
  8
dimensions
  6
ByLayer
 62
  256
370
   -1
100
AcDbDimension
  2
*D14
 10
280
 20
241
 30
0
 11
275
 21
243.8125
 31
0
 70
   32
 71
    5
  3
Standard
 53
0
210
0
220
0
230
1
100
AcDbAlignedDimension
 13
270
 23
240
 33
0
 14
280
 24
240
 34
0
100
AcDbRotatedDimension
  0
DIMENSION
  5
158
100
AcDbEntity
  8
dimensions
  6
ByLayer
 62
  256
370
   -1
100
AcDbDimension
  2
*D15
 10
290
 20
241
 30
0
 11
285
 21
243.8125
 31
0
 70
   32
 71
    5
  3
Standard
 53
0
210
0
220
0
230
1
100
AcDbAlignedDimension
 13
280
 23
240
 33
0
 14
290
 24
230
 34
0
100
AcDbRotatedDimension
  0
DIMENSION
  5
159
100
AcDbEntity
  8
dimensions
  6
ByLayer
 62
  256
370
   -1
100
AcDbDimension
  2
*D16
 10
300
 20
240
 30
0
 11
297.1875
 21
230
 31
0
 70
   33
 71
    5
  3
Standard
 53
0
210
0
220
0
230
1
100
AcDbAlignedDimension
 13
280
 23
220
 33
0
 14
280
 24
240
 34
0
  0
DIMENSION
  5
15A
100
AcDbEntity
  8
dimensions
  6
ByLayer
 62
  256
370
   -1
100
AcDbDimension
  2
*D17
 10
190
 20
152
 30
0
 11
180
 21
154.8125
 31
0
 70
   32
 71
    5
  3
Standard
 53
0
210
0
220
0
230
1
100
AcDbAlignedDimension
 13
170
 23
150
 33
0
 14
190
 24
150
 34
0
100
AcDbRotatedDimension
  0
DIMENSION
  5
15B
100
AcDbEntity
  8
dimensions
  6
ByLayer
 62
  256
370
   -1
100
AcDbDimension
  2
*D18
 10
196
 20
130
 30
0
 11
193.1875
 21
140
 31
0
 70
   33
 71
    5
  3
Standard
 53
0
210
0
220
0
230
1
100
AcDbAlignedDimension
 13
190
 23
150
 33
0
 14
190
 24
130
 34
0
  0
DIMENSION
  5
15C
100
AcDbEntity
  8
dimensions
  6
ByLayer
 62
  256
370
   -1
100
AcDbDimension
  2
*D19
 10
196
 20
90
 30
0
 11
193.1875
 21
100
 31
0
 70
   33
 71
    5
  3
Standard
 53
0
210
0
220
0
230
1
100
AcDbAlignedDimension
 13
190
 23
110
 33
0
 14
190
 24
90
 34
0
  0
LINE
  5
15D
100
AcDbEntity
  8
invisible
  6
ByLayer
 62
  256
370
   -1
100
AcDbLine
 10
170
 20
240
 11
170
 21
170
  0
LINE
  5
15E
100
AcDbEntity
  8
invisible
  6
ByLayer
 62
  256
370
   -1
100
AcDbLine
 10
310
 20
200
 11
310
 21
180
  0
ENDSEC
  0
SECTION
  2
OBJECTS
  0
DICTIONARY
  5
C
330
0
100
AcDbDictionary
281
    1
  3
ACAD_GROUP
350
D
  0
DICTIONARY
  5
D
330
C
100
AcDbDictionary
281
    1
  0
PLOTSETTINGS
  5
15F
100
AcDbPlotSettings
  6
1x1
 40
0
 41
0
 42
0
 43
0
  0
ENDSEC
  0
EOF
